<svg width="562" height="326" viewBox="0 0 562 326" fill="none" xmlns="http://www.w3.org/2000/svg">
<g clip-path="url(#clip0_32_210)">
<path d="M531.182 195.985C511.363 247.299 474.103 292.255 422.35 312.012C415.618 314.578 408.745 316.754 401.764 318.531C364.84 327.945 324.444 324.671 290.407 307.517C275.96 300.23 262.787 290.603 248.289 283.421C233.79 276.239 217.234 271.539 201.453 275.084C187.866 278.136 176.403 286.883 164.86 294.675C137.651 313.046 104.935 327.584 72.7153 321.274C57.8898 318.374 43.2909 310.342 36.4057 296.916C21.1877 267.235 49.8884 231.946 44.0759 199.12C40.3563 178.112 23.368 162.379 12.8069 143.838C-5.26714 112.125 -3.13052 69.9984 18.0613 40.2819C39.2531 10.5654 78.3752 -5.19766 114.244 1.54358C157.984 9.76741 191.054 46.7834 233.586 59.8822C260.184 68.0668 289.064 65.6249 314.468 54.8459C355.513 37.4258 411.902 10.7093 458.092 15.061C482.654 17.3764 506.746 28.2775 522.958 46.8924C543.452 70.3909 549.596 103.753 546.177 134.738C543.831 155.713 538.791 176.298 531.182 195.985Z" fill="url(#paint0_linear_32_210)"/>
<path d="M544.368 236.572C543.456 236.571 542.549 236.461 541.664 236.245C538.865 235.557 536.436 233.827 534.871 231.407C533.305 228.988 532.721 226.063 533.24 223.228C533.754 220.393 535.337 217.863 537.657 216.154C539.977 214.444 542.863 213.686 545.724 214.031C548.584 214.378 551.205 215.803 553.049 218.016C554.898 220.229 555.827 223.063 555.657 225.939C555.483 228.816 554.218 231.518 552.121 233.494C550.023 235.47 547.25 236.571 544.368 236.572ZM544.368 219.052C542.868 219.057 541.424 219.611 540.304 220.608C539.183 221.606 538.468 222.977 538.289 224.466C538.115 225.955 538.485 227.457 539.34 228.69C540.19 229.923 541.464 230.802 542.92 231.161C543.762 231.363 544.638 231.385 545.493 231.225C546.343 231.064 547.15 230.726 547.86 230.231C548.571 229.736 549.173 229.096 549.618 228.353C550.062 227.61 550.35 226.781 550.451 225.92C550.555 225.06 550.472 224.187 550.215 223.359C549.958 222.532 549.526 221.769 548.951 221.12C548.375 220.471 547.673 219.952 546.879 219.595C546.09 219.239 545.235 219.053 544.368 219.052Z" fill="#E7F6FF"/>
<path d="M534.046 248.568C534.687 245.916 533.061 243.245 530.41 242.602C527.754 241.959 525.086 243.588 524.44 246.239C523.799 248.891 525.426 251.562 528.081 252.205C530.733 252.848 533.401 251.219 534.046 248.568Z" fill="#E7F6FF"/>
<path d="M24.0664 235.495C21.0714 235.429 18.2231 234.185 16.1398 232.033C14.0566 229.88 12.9065 226.992 12.9392 223.997C12.9719 221.001 14.1848 218.139 16.3146 216.033C18.4444 213.926 21.3192 212.745 24.3149 212.745C27.3106 212.745 30.1854 213.926 32.3152 216.033C34.445 218.139 35.6579 221.001 35.6906 223.997C35.7234 226.992 34.5733 229.88 32.49 232.033C30.4067 234.185 27.5584 235.429 24.5635 235.495H24.0664ZM24.0664 217.979H23.8091C22.1916 218.014 20.6531 218.685 19.5278 219.848C18.4024 221.01 17.781 222.57 17.7986 224.188C17.8161 225.805 18.471 227.351 19.6213 228.489C20.7715 229.627 22.3242 230.265 23.9421 230.265C25.56 230.265 27.1127 229.627 28.2629 228.489C29.4131 227.351 30.0681 225.805 30.0856 224.188C30.1031 222.57 29.4818 221.01 28.3565 219.848C27.2311 218.685 25.6927 218.014 24.0751 217.979H24.0664Z" fill="#E7F6FF"/>
<path d="M15.9547 254.586C18.6807 254.469 20.7952 252.163 20.6776 249.438C20.56 246.711 18.2548 244.597 15.5288 244.714C12.8029 244.832 10.6884 247.137 10.8059 249.863C10.9235 252.589 13.2287 254.704 15.9547 254.586Z" fill="#E7F6FF"/>
<path d="M309.191 51.5667C306.476 51.5689 303.85 50.5995 301.788 48.8336C299.727 47.0676 298.365 44.6218 297.951 41.9388C297.536 39.256 298.096 36.5133 299.528 34.2073C300.96 31.9013 303.171 30.1842 305.76 29.367C308.349 28.5497 311.145 28.6863 313.641 29.752C316.138 30.8176 318.171 32.7419 319.372 35.1765C320.573 37.6112 320.862 40.3953 320.188 43.025C319.514 45.6548 317.921 47.9562 315.697 49.5129C313.79 50.8472 311.519 51.5641 309.191 51.5667ZM309.156 34.0549C307.568 34.0533 306.04 34.6647 304.891 35.7618C303.742 36.8588 303.062 38.3569 302.99 39.9437C302.919 41.5305 303.463 43.0836 304.508 44.2795C305.554 45.4751 307.021 46.2212 308.602 46.3621C310.185 46.5029 311.76 46.0276 313.001 45.0356C314.241 44.0436 315.051 42.6111 315.261 41.0366C315.471 39.4622 315.066 37.8674 314.129 36.5846C313.192 35.3018 311.797 34.43 310.233 34.1509C309.877 34.0875 309.517 34.0554 309.156 34.0549Z" fill="#E7F6FF"/>
<path d="M285.995 50.945C288.229 49.3783 288.77 46.2977 287.204 44.0634C285.637 41.8296 282.556 41.2885 280.322 42.8551C278.088 44.4218 277.547 47.5024 279.114 49.7367C280.68 51.9706 283.761 52.5117 285.995 50.945Z" fill="#E7F6FF"/>
<path d="M560.754 110.171C560.754 105.376 558.849 100.778 555.461 97.3876C552.068 93.9974 547.473 92.0927 542.676 92.0927C542.275 92.0927 541.878 92.0927 541.486 92.132C541.512 91.7395 541.525 91.3427 541.525 90.9416C541.525 88.372 540.975 85.8324 539.916 83.4913C538.856 81.1506 537.313 79.0624 535.381 77.3662C533.449 75.6695 531.182 74.4041 528.723 73.6541C526.268 72.9041 523.678 72.6865 521.131 73.0158C518.58 73.345 516.134 74.2136 513.945 75.564C511.76 76.914 509.885 78.7149 508.451 80.8463C507.016 82.9772 506.053 85.3898 505.621 87.9233C505.194 90.4567 505.307 93.0525 505.961 95.5375C503.776 93.9529 501.265 92.8776 498.609 92.3906C495.954 91.9039 493.224 92.0173 490.621 92.7233C488.013 93.4292 485.602 94.7094 483.553 96.4702C481.508 98.2305 479.881 100.427 478.795 102.898C477.71 105.369 477.191 108.052 477.278 110.749C477.365 113.447 478.054 116.091 479.293 118.487C480.535 120.884 482.297 122.972 484.451 124.599C486.605 126.225 489.095 127.349 491.742 127.888C492.823 130.752 494.611 133.294 496.944 135.278C499.272 137.261 502.067 138.621 505.067 139.228C508.067 139.835 511.172 139.671 514.093 138.751C517.01 137.83 519.648 136.184 521.759 133.966C523.917 135.595 526.412 136.719 529.063 137.256C531.714 137.792 534.448 137.727 537.069 137.066C539.694 136.405 542.131 135.165 544.211 133.436C546.291 131.707 547.952 129.534 549.082 127.077C552.513 125.776 555.465 123.462 557.55 120.443C559.638 117.423 560.754 113.84 560.754 110.171Z" fill="white"/>
<path d="M83.4809 66.715C83.4835 64.3398 83.0174 61.9873 82.1104 59.7923C81.203 57.5972 79.8722 55.6023 78.1938 53.9218C76.5151 52.2413 74.5219 50.9079 72.3277 49.9978C70.134 49.0883 67.7819 48.6195 65.4068 48.6191C65.0056 48.6191 64.6088 48.6191 64.2164 48.6583C64.2426 48.2659 64.2556 47.8691 64.2556 47.4679C64.2552 44.8983 63.7071 42.3585 62.6475 40.0176C61.5884 37.6767 60.0421 35.5885 58.1122 33.8922C56.1823 32.1959 53.9126 30.9306 51.4551 30.1804C48.9975 29.4303 46.4087 29.2126 43.8605 29.5419C41.312 29.8713 38.8632 30.74 36.6772 32.0902C34.4911 33.4405 32.6179 35.2412 31.1826 37.3723C29.7473 39.5035 28.7827 41.9161 28.3532 44.4496C27.9237 46.9826 28.0392 49.5784 28.6919 52.0638C26.5069 50.4792 23.9949 49.404 21.3402 48.9169C18.6855 48.4298 15.9554 48.5436 13.3503 49.2496C10.7452 49.9555 8.33126 51.2358 6.28551 52.9961C4.23981 54.7568 2.61427 56.9532 1.52821 59.4243C0.442146 61.8949 -0.0768883 64.5779 0.00919916 67.2753C0.0952864 69.9731 0.78431 72.6173 2.02571 75.0138C3.2671 77.4103 5.02935 79.4985 7.18315 81.1254C9.337 82.7518 11.8277 83.8755 14.4725 84.414C15.5533 87.2754 17.3425 89.8158 19.6725 91.7972C22.0025 93.7785 24.7972 95.1368 27.795 95.7438C30.7928 96.3512 33.8956 96.1881 36.8132 95.2694C39.7307 94.3511 42.3675 92.7076 44.4766 90.4925C46.6346 92.1211 49.1305 93.2453 51.7804 93.782C54.4302 94.3184 57.1669 94.2538 59.7884 93.5928C62.4099 92.9317 64.85 91.6912 66.9286 89.9623C69.0072 88.2334 70.6716 86.0601 71.7992 83.603C75.2292 82.3044 78.1834 79.9938 80.2698 76.9777C82.3563 73.9616 83.4761 70.3821 83.4809 66.715Z" fill="white"/>
<path d="M416.066 323.951H155.965V318.282H416.066C416.818 318.282 417.538 318.581 418.07 319.112C418.601 319.644 418.9 320.365 418.9 321.117C418.9 321.869 418.601 322.589 418.07 323.121C417.538 323.652 416.818 323.951 416.066 323.951Z" fill="#426572"/>
<path d="M144.332 323.951H128.429C127.677 323.951 126.956 323.652 126.425 323.121C125.893 322.589 125.595 321.869 125.595 321.117C125.595 320.365 125.893 319.644 126.425 319.112C126.956 318.581 127.677 318.282 128.429 318.282H144.332C145.083 318.282 145.804 318.581 146.336 319.112C146.867 319.644 147.166 320.365 147.166 321.117C147.166 321.869 146.867 322.589 146.336 323.121C145.804 323.652 145.083 323.951 144.332 323.951Z" fill="#426572"/>
<path d="M118.108 323.951H113.041C112.29 323.951 111.569 323.652 111.037 323.121C110.506 322.589 110.207 321.869 110.207 321.117C110.207 320.365 110.506 319.644 111.037 319.112C111.569 318.581 112.29 318.282 113.041 318.282H118.108C118.86 318.282 119.581 318.581 120.112 319.112C120.644 319.644 120.942 320.365 120.942 321.117C120.942 321.869 120.644 322.589 120.112 323.121C119.581 323.652 118.86 323.951 118.108 323.951Z" fill="#426572"/>
<path d="M507.269 323.951H427.324V318.282H507.269C508.019 318.282 508.743 318.581 509.275 319.112C509.807 319.644 510.103 320.365 510.103 321.117C510.103 321.869 509.807 322.589 509.275 323.121C508.743 323.652 508.019 323.951 507.269 323.951Z" fill="#426572"/>
<path d="M98.5454 323.951H18.5967V318.282H98.5454C99.2972 318.282 100.018 318.581 100.55 319.112C101.081 319.644 101.38 320.365 101.38 321.117C101.38 321.869 101.081 322.589 100.55 323.121C100.018 323.652 99.2972 323.951 98.5454 323.951Z" fill="#426572"/>
<path d="M123.881 102.715H415.081C420.336 102.715 425.377 104.802 429.094 108.517C432.811 112.233 434.901 117.273 434.903 122.529V311.014H104.058V122.529C104.06 117.273 106.15 112.233 109.867 108.517C113.584 104.802 118.625 102.715 123.881 102.715Z" fill="#EBF0F9"/>
<path d="M423.404 117.17H116.869V292.286H423.404V117.17Z" fill="#637F91"/>
<path d="M114.572 291.958H424.709C424.709 293.349 424.159 294.682 423.178 295.667C422.197 296.653 420.867 297.21 419.476 297.217H119.826C118.432 297.217 117.094 296.663 116.107 295.677C115.122 294.691 114.567 293.353 114.567 291.958H114.572Z" fill="white"/>
<g opacity="0.5">
<path opacity="0.5" d="M208.469 116.516L162.637 293.271H139.557L185.389 116.516H208.469Z" fill="#A7BCD5"/>
<path opacity="0.5" d="M267.297 116.516L221.468 293.271H173.067L218.9 116.516H267.297Z" fill="#A7BCD5"/>
</g>
<path d="M437.519 313.63H101.442V114.078C101.446 110.372 102.921 106.819 105.541 104.198C108.162 101.577 111.715 100.103 115.421 100.099H423.54C427.246 100.103 430.799 101.577 433.42 104.198C436.04 106.819 437.515 110.372 437.519 114.078V313.63ZM106.674 308.397H432.287V114.078C432.284 111.759 431.362 109.536 429.722 107.896C428.083 106.256 425.859 105.333 423.54 105.331H115.421C113.102 105.333 110.879 106.256 109.239 107.896C107.599 109.536 106.677 111.759 106.674 114.078V308.397Z" fill="#426572"/>
<path d="M62.332 304.774H485.501V306.165C485.501 310.675 483.709 315 480.522 318.19C477.33 321.379 473.004 323.171 468.496 323.171H79.3378C74.8278 323.171 70.5022 321.379 67.313 318.19C64.1237 315 62.332 310.675 62.332 306.165V304.774Z" fill="#EBF0F9"/>
<path opacity="0.5" d="M483.335 313.643C482.406 316.062 480.762 318.142 478.625 319.609C476.489 321.075 473.955 321.859 471.365 321.858H73.8318C71.2413 321.858 68.7118 321.073 66.5765 319.606C64.4416 318.14 62.8007 316.061 61.8711 313.643H483.335Z" fill="#A7BCD5"/>
<path d="M466.521 325.128H77.3676C72.1652 325.123 67.1777 323.053 63.4992 319.375C59.8203 315.696 57.7513 310.709 57.7456 305.506V301.499H486.147V305.506C486.143 310.709 484.071 315.698 480.391 319.376C476.711 323.055 471.723 325.124 466.521 325.128ZM63.0261 306.732C63.3331 310.323 64.9761 313.668 67.6312 316.106C70.2858 318.543 73.7589 319.896 77.3633 319.896H466.521C470.127 319.896 473.598 318.543 476.253 316.106C478.909 313.668 480.553 310.323 480.858 306.732H63.0261Z" fill="#426572"/>
<path d="M425.362 293.916H113.59V114.553H425.362V293.916ZM118.822 288.684H420.13V119.786H118.822V288.684Z" fill="#426572"/>
<path d="M376.547 60.9547V291.3H167.59V60.9547C167.598 59.916 168.014 58.9227 168.748 58.1884C169.482 57.4541 170.476 57.0381 171.514 57.0303H372.605C372.842 57.0303 373.079 57.0521 373.312 57.0957C374.215 57.2627 375.032 57.7393 375.623 58.4435C376.213 59.1477 376.54 60.0355 376.547 60.9547Z" fill="white"/>
<path d="M170.878 76.0681H377.206V62.2106L373.26 57.0129H192.563H174.82L168.249 62.2106V76.0681H170.878Z" fill="#E2F2FF"/>
<path d="M379.823 293.917H165.633V60.955C165.639 59.2221 166.331 57.5626 167.556 56.3373C168.781 55.1124 170.441 54.4208 172.173 54.4143H373.256C374.988 54.4208 376.648 55.1124 377.873 56.3373C379.098 57.5626 379.79 59.2221 379.796 60.955L379.823 293.917ZM170.865 288.684H374.59V60.955C374.581 60.6105 374.441 60.283 374.197 60.0397C373.953 59.796 373.626 59.6556 373.282 59.6468H172.191C171.846 59.6556 171.519 59.796 171.276 60.0397C171.032 60.283 170.892 60.6105 170.883 60.955L170.865 288.684Z" fill="#426572"/>
<path d="M364.352 65.0886H180.541C179.089 65.0886 177.912 66.2655 177.912 67.718C177.912 69.17 179.089 70.3473 180.541 70.3473H364.352C365.804 70.3473 366.981 69.17 366.981 67.718C366.981 66.2655 365.804 65.0886 364.352 65.0886Z" fill="#CADCE8"/>
<path d="M236.385 100.744H193.422V149.699H236.385V100.744Z" fill="#E8837E"/>
<path d="M342.313 100.744H240.44V149.699H342.313V100.744Z" fill="#E8837E"/>
<path d="M342.313 155.119H294.213V204.074H342.313V155.119Z" fill="#DDE4ED"/>
<path d="M290.158 155.119H193.962V204.074H290.158V155.119Z" fill="#DDE4ED"/>
<path d="M342.584 209.494H193.962V258.448H342.584V209.494Z" fill="#DDE4ED"/>
<path d="M343.896 265.028H305.786V270.261H343.896V265.028Z" fill="#DDE4ED"/>
<path d="M135.707 278.825H73.3264C72.2996 278.832 71.2871 278.58 70.3831 278.092C69.075 277.377 68.2378 276.204 68.2378 274.883L68.2727 189.13C68.2735 188.569 68.424 188.018 68.7087 187.534C69.5023 186.156 71.2945 185.188 73.3613 185.188H135.742C137.922 185.188 139.758 186.244 140.49 187.718C140.712 188.154 140.829 188.636 140.831 189.126L140.8 274.883C140.8 276.863 138.886 278.515 136.413 278.786C136.179 278.812 135.943 278.825 135.707 278.825Z" fill="white"/>
<path d="M137.403 278.166L75.0008 278.153C73.9739 278.16 72.9614 277.909 72.0575 277.421C70.7493 276.706 69.9121 275.533 69.9121 274.211L69.947 188.459C69.9479 187.897 70.0983 187.346 70.383 186.863C71.1766 185.485 72.9688 184.517 75.0356 184.517H75.8859L75.8728 268.953C75.8728 270.261 76.7188 271.447 78.0182 272.162C78.9221 272.65 79.9346 272.902 80.9615 272.895H142.496V274.203C142.496 276.182 140.582 277.835 138.11 278.105C137.875 278.139 137.64 278.159 137.403 278.166Z" fill="#D6DEE9"/>
<path d="M136.552 280.783H74.1669C72.6957 280.79 71.2467 280.425 69.9547 279.723C67.7744 278.515 66.4663 276.457 66.4663 274.224L66.5012 188.472C66.5064 187.449 66.7816 186.445 67.2992 185.563C68.6073 183.318 71.2236 181.918 74.2105 181.918H136.591C139.643 181.918 142.369 183.422 143.607 185.76L143.956 186.296V186.54C144.181 187.162 144.296 187.819 144.296 188.48L144.261 274.233C144.261 277.521 141.37 280.338 137.542 280.735C137.213 280.769 136.882 280.785 136.552 280.783ZM74.1974 187.129C73.0244 187.129 72.1087 187.648 71.8166 188.162C71.7595 188.249 71.7276 188.35 71.725 188.454L71.6901 274.207C71.6901 274.495 72.0084 274.861 72.4837 275.127C73.0018 275.401 73.5804 275.542 74.1669 275.537H136.548C136.684 275.537 136.821 275.53 136.957 275.515C138.266 275.376 139.024 274.643 139.024 274.207L139.059 188.454C139.059 188.402 139.05 188.351 139.033 188.302L138.789 187.927C138.186 187.382 137.394 187.096 136.582 187.129H74.2018H74.1974Z" fill="#426572"/>
<path d="M129.358 222.296H87.0527V227.528H129.358V222.296Z" fill="#426572"/>
<path d="M129.358 211.377H87.0527V216.61H129.358V211.377Z" fill="#426572"/>
<path d="M129.358 234.667H87.0527V239.899H129.358V234.667Z" fill="#426572"/>
<path opacity="0.2" d="M467.441 123.837C470.489 118.116 472.359 111.843 472.944 105.388C473.528 98.9324 472.813 92.4258 470.842 86.2509C468.871 80.0765 465.684 74.3595 461.463 69.437C457.246 64.5149 452.088 60.4872 446.288 57.5914C440.489 54.6956 434.169 52.9907 427.701 52.5773C421.232 52.164 414.746 53.0504 408.626 55.184C402.506 57.318 396.875 60.6564 392.066 65.0016C387.256 69.3472 383.366 74.6116 380.625 80.4851C376.838 87.5948 374.881 95.5348 374.929 103.589C374.976 111.644 377.027 119.561 380.897 126.625C384.767 133.69 390.334 139.68 397.096 144.057C403.858 148.433 411.603 151.059 419.633 151.696C418.232 152.027 416.809 152.296 415.364 152.502C422.965 153.598 430.718 152.875 437.986 150.391C445.255 147.908 451.826 143.736 457.168 138.217C461.441 134.091 464.925 129.217 467.441 123.837Z" fill="#606060"/>
<path d="M418.063 140.363C444.866 140.363 466.595 118.635 466.595 91.8313C466.595 65.028 444.866 43.2993 418.063 43.2993C391.26 43.2993 369.531 65.028 369.531 91.8313C369.531 118.635 391.26 140.363 418.063 140.363Z" fill="#A8EF9E"/>
<path d="M464.279 95.2977C464.279 102.256 462.779 109.133 459.888 115.461C456.997 121.79 452.777 127.423 447.518 131.978C442.259 136.533 436.08 139.904 429.402 141.863C422.725 143.821 415.705 144.321 408.818 143.328C420.367 141.659 430.927 135.884 438.566 127.063C446.201 118.242 450.404 106.964 450.404 95.2955C450.404 83.627 446.201 72.3491 438.566 63.5279C430.927 54.7063 420.367 48.9321 408.818 47.263C415.706 46.2692 422.727 46.7685 429.404 48.7268C436.08 50.685 442.259 54.0565 447.522 58.6123C452.781 63.1682 457.002 68.8019 459.893 75.1315C462.784 81.4611 464.284 88.3384 464.284 95.2977H464.279Z" fill="#A7E59C"/>
<path d="M416.907 145.286C406.79 145.286 396.901 142.286 388.49 136.666C380.079 131.046 373.523 123.057 369.652 113.712C365.78 104.365 364.767 94.0812 366.741 84.1594C368.715 74.2377 373.586 65.1239 380.739 57.9706C387.893 50.8177 397.006 45.9462 406.928 43.9726C416.85 41.999 427.134 43.0119 436.481 46.8832C445.826 50.7544 453.814 57.3104 459.435 65.7217C465.055 74.1326 468.055 84.0217 468.055 94.1379C468.038 107.698 462.644 120.7 453.055 130.289C443.467 139.877 430.467 145.271 416.907 145.286ZM416.907 48.2267C407.825 48.2267 398.948 50.9197 391.397 55.9647C383.847 61.0102 377.961 68.181 374.486 76.5709C371.011 84.9609 370.102 94.1933 371.873 103.1C373.645 112.007 378.018 120.188 384.439 126.609C390.861 133.031 399.042 137.404 407.949 139.176C416.856 140.947 426.088 140.038 434.478 136.562C442.869 133.087 450.038 127.202 455.083 119.651C460.128 112.101 462.823 103.223 462.823 94.1423C462.81 81.9688 457.97 70.2971 449.358 61.6892C440.75 53.0807 429.08 48.2393 416.907 48.2267Z" fill="#426572"/>
<path d="M441.422 74.2933C440.375 73.7082 439.141 73.5512 437.981 73.8551C436.821 74.1595 435.825 74.9007 435.199 75.9241L426.797 89.6596L413.371 111.584L412.996 112.199L397.495 99.7976L394.669 97.5389C392.816 96.0564 390.021 95.5898 388.237 97.5389C386.72 99.1915 386.253 102.383 388.237 103.971L408.169 119.912L410.994 122.171C412.167 123.113 413.284 123.628 414.814 123.423C415.498 123.338 416.154 123.098 416.73 122.72C417.306 122.342 417.788 121.836 418.137 121.242L426.54 107.507L439.97 85.5869L443.07 80.5201C444.295 78.4881 443.563 75.4358 441.422 74.2933Z" fill="white"/>
</g>
<defs>
<linearGradient id="paint0_linear_32_210" x1="0.57587" y1="161.856" x2="547.062" y2="161.856" gradientUnits="userSpaceOnUse">
<stop stop-color="#C5E9FA"/>
<stop offset="1" stop-color="#C4F4EA"/>
</linearGradient>
<clipPath id="clip0_32_210">
<rect width="561.19" height="325.29" fill="white"/>
</clipPath>
</defs>
</svg>
