<svg width="72" height="72" viewBox="0 0 72 72" fill="none" xmlns="http://www.w3.org/2000/svg">
<path d="M0 0H72V72H0V0Z" fill="#F7DF1E"/>
<path d="M18.9314 60.1685L24.4411 56.834C25.5042 58.7187 26.4712 60.3134 28.7907 60.3134C31.0139 60.3134 32.416 59.4437 32.416 56.0609V33.0552H39.182V56.1565C39.182 63.1644 35.0741 66.3543 29.0806 66.3543C23.668 66.3543 20.5261 63.5511 18.9312 60.168" fill="black"/>
<path d="M42.8572 59.4435L48.3663 56.2538C49.8167 58.6222 51.7017 60.3621 55.0362 60.3621C57.84 60.3621 59.6276 58.9603 59.6276 57.027C59.6276 54.7072 57.791 53.8854 54.6978 52.5326L53.0067 51.807C48.125 49.7294 44.887 47.1194 44.887 41.6097C44.887 36.5348 48.7533 32.6682 54.7949 32.6682C59.0963 32.6682 62.1895 34.1667 64.4125 38.0814L59.1441 41.4649C57.984 39.3867 56.7279 38.5652 54.7946 38.5652C52.8129 38.5652 51.5563 39.8218 51.5563 41.4649C51.5563 43.4946 52.8129 44.3167 55.7126 45.5734L57.404 46.2982C63.1556 48.7633 66.3936 51.2763 66.3936 56.9305C66.3936 63.0207 61.609 66.3552 55.181 66.3552C48.8982 66.3552 44.8383 63.3588 42.8569 59.4438" fill="black"/>
</svg>
