<svg width="66" height="66" viewBox="0 0 66 66" fill="none" xmlns="http://www.w3.org/2000/svg">
<path d="M33 0C14.7696 0 0 14.7696 0 33C0 51.2304 14.7696 66 33 66C51.2304 66 66 51.2304 66 33C66 14.7696 51.2304 0 33 0ZM19.1421 21.12C21.2149 21.12 22.8278 22.6318 23.0093 24.4179C23.2052 26.0287 22.5369 27.4374 20.7549 28.2851C19.8082 28.7574 19.4329 28.7574 19.239 28.4769C19.1421 28.2851 19.239 28.1036 19.4308 27.9077C21.1303 26.5031 21.1303 25.3646 20.9344 23.7641C20.8374 22.7226 20.0867 22.0646 19.3339 22.0646C16.0256 22.0646 11.3211 29.4133 11.9749 34.7944C12.2657 36.8672 13.4908 39.3174 16.1226 39.3174C16.9723 39.3174 17.919 39.0369 18.7646 38.6636C20.1403 37.9314 20.9674 37.3746 21.7841 36.4609C21.5799 34.0209 23.7167 30.8323 26.8744 30.8323C28.2934 30.8323 29.4216 31.4016 29.5164 32.4431C29.7 33.8518 28.4749 34.0436 28.0995 34.0436C27.7221 34.0436 27.0579 33.9467 27.0579 33.5713C26.9734 33.1939 27.9056 33.3795 27.819 32.5298C27.7221 31.9605 27.1528 31.779 26.5959 31.779C24.6077 31.779 23.4795 34.518 23.76 36.2031C23.8569 36.9641 24.2303 37.719 24.9954 37.719C25.5544 37.719 26.4041 36.8693 26.6805 35.6462C26.8723 34.7964 27.6272 34.2272 28.2913 34.2272C28.5718 34.2272 28.7533 34.3241 28.8503 34.6995V35.0769C28.7657 35.4544 28.4728 36.5929 28.5718 36.8692C28.5718 37.0652 28.6688 37.3416 29.0421 37.3416C29.2896 37.3416 30.2362 36.8466 31.1809 36.0731C31.4923 34.4499 31.8677 32.5071 31.8677 32.3462C31.9646 31.68 32.2451 31.0241 33.5651 31.0241C33.8539 31.0241 34.0374 31.1211 34.1344 31.4964V31.8739L33.7569 33.5713C34.9841 31.9708 36.7764 30.8426 37.9046 30.8426C38.3769 30.8426 38.7544 31.1211 38.7544 31.5934C38.7544 31.8739 38.7544 32.3462 38.5584 32.8206C38.1851 33.8518 37.7108 35.4626 37.4303 36.8692C37.4303 37.2467 37.5272 37.6221 37.9995 37.6221C38.4718 37.6221 39.8805 37.0631 41.0087 35.5493L41.0314 35.5389C41.0314 35.3554 41.0087 35.1739 41.0087 34.9924C41.0087 33.8539 41.1056 32.9196 41.2995 32.2534C41.4913 31.5006 42.4277 30.8447 42.9969 30.8447C43.2754 30.8447 43.5662 31.0262 43.5662 31.3067C43.5662 31.4036 43.5662 31.5954 43.4692 31.6841C43.0918 32.9196 42.801 34.0457 42.801 35.1739C42.801 35.8401 42.9 36.7744 43.0918 37.3436C43.0918 37.4406 43.1764 37.5354 43.2733 37.5354C43.4693 37.5354 44.7892 36.3124 45.7236 34.6995C44.8738 34.1406 44.4015 33.1959 44.4015 32.0677C44.4015 30.0816 45.639 29.0482 46.7672 29.0482C47.7139 29.0482 48.4646 29.7062 48.4646 31.0262C48.4646 31.8759 48.1841 32.8226 47.7139 33.6682H47.9923C48.5946 33.6909 49.1865 33.4434 49.5928 33.0144C49.6825 32.8709 49.8143 32.7586 49.9703 32.6927C50.8943 31.5212 52.2472 30.6529 53.8477 30.6529C55.1678 30.6529 56.3826 31.2221 56.4795 32.2534C56.6713 33.6703 55.4379 33.9508 55.0605 33.9508C54.6872 33.9508 54.021 33.8539 54.021 33.4785C54.021 33.1031 54.8687 33.2867 54.7821 32.4473C54.6851 31.878 54.1159 31.6862 53.5466 31.6862C51.6656 31.6862 50.4426 34.1344 50.7189 36.1226C50.8159 36.8734 51.1912 37.7231 51.9461 37.7231C52.5154 37.7231 53.3631 36.8734 53.7384 35.6503C53.9199 34.8996 54.6851 34.2313 55.3389 34.2313C55.6277 34.2313 55.8113 34.3283 55.9082 34.7036C55.9082 34.8996 55.9082 35.2729 55.5308 36.5001C55.0584 37.3478 55.0584 37.8201 55.1574 38.1975C55.242 38.9482 55.6194 39.5175 56.0051 39.798C56.074 39.8855 56.1354 39.9786 56.1887 40.0764C56.1887 40.2724 56.0897 40.4642 55.8112 40.4642C55.7143 40.4642 55.6277 40.4642 55.5308 40.3673C54.1138 39.798 53.5446 38.8513 53.361 37.9067C52.7917 38.5729 52.1379 38.9482 51.3748 38.9482C50.1476 38.9482 48.9349 37.8201 48.7431 36.4011C48.6844 35.7993 48.754 35.192 48.9473 34.6191C48.3883 34.9738 47.7861 35.178 47.2292 35.178H46.7672C45.5317 36.9703 44.2097 38.1975 43.2754 38.7564C42.9536 38.9279 42.598 39.0265 42.2338 39.0452C42.0523 39.0452 41.7636 38.9482 41.6749 38.7564C41.4088 38.3377 41.2459 37.6819 41.1386 36.9311C39.8166 38.3687 37.9892 39.1421 37.1436 39.1421C36.1969 39.1421 35.64 38.5729 35.5431 37.6303V36.5991C35.8215 34.5263 36.5846 33.2908 36.5846 32.9134C36.5791 32.8637 36.5566 32.8175 36.5209 32.7825C36.4852 32.7476 36.4385 32.726 36.3887 32.7216C35.7349 32.7216 33.5651 34.9883 33.1877 36.5021L32.8989 37.7252C32.7154 38.5729 31.8677 39.1421 31.2984 39.1421C31.0179 39.1421 30.8261 39.0452 30.7395 38.6719V38.2944L30.8571 37.6509C29.6629 38.4986 28.4707 39.0452 27.9015 39.0452C27.0538 39.0452 26.5815 38.5729 26.4969 37.9067C25.9277 38.6719 25.2698 39.0452 24.4241 39.0452C23.4444 39.0452 22.5019 38.379 22.0502 37.4137C21.3716 38.1748 20.6085 38.9379 19.7072 39.5175C18.3872 40.3672 16.8836 41.0211 15.0872 41.0211C13.4867 41.0211 12.0697 40.1713 11.3169 39.4206C10.1784 38.379 9.52462 36.7785 9.42769 35.2729C8.86875 30.6549 11.6944 24.7129 16.0215 22.0708C17.0631 21.5016 18.1067 21.1283 19.1379 21.1283L19.1421 21.12ZM46.0082 30.1764C45.7297 30.1764 45.5379 30.6488 45.5379 31.1087C45.5379 31.8739 45.9113 32.7195 46.3856 33.1939C46.5748 32.6777 46.6732 32.1328 46.6764 31.5831C46.6764 30.6508 46.299 30.1785 46.0082 30.1785V30.1764Z" fill="#005F99"/>
</svg>
