<svg width="66" height="66" viewBox="0 0 66 66" fill="none" xmlns="http://www.w3.org/2000/svg">
<path d="M0 57.4899C0 62.1903 3.81021 66 8.51013 66H57.4896C62.1903 66 66 62.1898 66 57.4899V8.51039C66 3.8097 62.1898 0 57.4899 0H8.51039C3.8097 0 0 3.81021 0 8.51013V57.4896V57.4899Z" fill="#563D7C"/>
<path d="M27.3691 29.1942V19.8477H35.5961C36.3799 19.8477 37.1352 19.9129 37.8628 20.0436C38.5903 20.1741 39.2341 20.4071 39.7938 20.7431C40.3533 21.079 40.8011 21.5454 41.137 22.1422C41.4727 22.7393 41.6408 23.5043 41.6408 24.4368C41.6408 26.1159 41.137 27.3286 40.1295 28.0748C39.1222 28.8211 37.835 29.1942 36.2677 29.1942H27.3691ZM18.582 13.0195V52.9805H37.9468C39.7379 52.9805 41.4822 52.7567 43.1799 52.3089C44.8776 51.861 46.3887 51.1709 47.7133 50.2381C49.0377 49.3054 50.0919 48.1019 50.8754 46.6282C51.6591 45.1543 52.0507 43.41 52.0507 41.3951C52.0507 38.8951 51.4444 36.7592 50.2319 34.987C49.0191 33.2145 47.1814 31.9739 44.7188 31.2649C46.5098 30.4069 47.8626 29.3061 48.7768 27.9629C49.6907 26.6197 50.1478 24.9408 50.1478 22.9257C50.1478 21.0602 49.84 19.4932 49.2243 18.2245C48.6087 16.9561 47.7411 15.9393 46.6217 15.1743C45.5026 14.4094 44.1594 13.859 42.5921 13.5233C41.0251 13.1874 39.29 13.0195 37.3871 13.0195H18.582ZM27.3691 46.1523V35.1826H36.9393C38.8422 35.1826 40.3721 35.6209 41.5289 36.498C42.6854 37.3748 43.264 38.8392 43.264 40.8914C43.264 41.9363 43.0866 42.7943 42.7321 43.4659C42.3776 44.1375 41.9019 44.6694 41.3049 45.061C40.708 45.4529 40.0176 45.7326 39.2341 45.9007C38.4503 46.0683 37.6297 46.1523 36.7715 46.1523H27.3691Z" fill="white"/>
</svg>
