<?xml version="1.0" encoding="UTF-8"?>
<svg fill="none" viewBox="0 0 562 326" xmlns="http://www.w3.org/2000/svg">
<g clip-path="url(#b)">
<path d="m531.18 195.98c-19.819 51.314-57.079 96.27-108.83 116.03-6.732 2.566-13.605 4.742-20.586 6.519-36.924 9.414-77.32 6.14-111.36-11.014-14.447-7.287-27.62-16.914-42.118-24.096-14.499-7.182-31.055-11.882-46.836-8.337-13.587 3.052-25.05 11.799-36.593 19.591-27.209 18.371-59.925 32.909-92.145 26.599-14.826-2.9-29.424-10.932-36.31-24.358-15.218-29.681 13.483-64.97 7.6702-97.796-3.7196-21.008-20.708-36.741-31.269-55.282-18.074-31.713-15.937-73.84 5.2544-103.56 21.192-29.716 60.314-45.48 96.183-38.738 43.74 8.2238 76.81 45.24 119.34 58.339 26.598 8.1846 55.478 5.7427 80.882-5.0363 41.045-17.42 97.434-44.137 143.62-39.785 24.562 2.3154 48.654 13.216 64.866 31.831 20.494 23.498 26.638 56.861 23.219 87.846-2.346 20.975-7.386 41.56-14.995 61.247z" fill="url(#a)"/>
<path d="m544.37 236.57c-0.912-1e-3 -1.819-0.111-2.704-0.327-2.799-0.688-5.228-2.418-6.793-4.838-1.566-2.419-2.15-5.344-1.631-8.179 0.514-2.835 2.097-5.365 4.417-7.074 2.32-1.71 5.206-2.468 8.067-2.123 2.86 0.347 5.481 1.772 7.325 3.985 1.849 2.213 2.778 5.047 2.608 7.923-0.174 2.877-1.439 5.579-3.536 7.555-2.098 1.976-4.871 3.077-7.753 3.078zm0-17.52c-1.5 5e-3 -2.944 0.559-4.064 1.556-1.121 0.998-1.836 2.369-2.015 3.858-0.174 1.489 0.196 2.991 1.051 4.224 0.85 1.233 2.124 2.112 3.58 2.471 0.842 0.202 1.718 0.224 2.573 0.064 0.85-0.161 1.657-0.499 2.367-0.994 0.711-0.495 1.313-1.135 1.758-1.878 0.444-0.743 0.732-1.572 0.833-2.433 0.104-0.86 0.021-1.733-0.236-2.561-0.257-0.827-0.689-1.59-1.264-2.239-0.576-0.649-1.278-1.168-2.072-1.525-0.789-0.356-1.644-0.542-2.511-0.543z" fill="#E7F6FF"/>
<path d="m534.05 248.57c0.641-2.652-0.985-5.323-3.636-5.966-2.656-0.643-5.324 0.986-5.97 3.637-0.641 2.652 0.986 5.323 3.641 5.966 2.652 0.643 5.32-0.986 5.965-3.637z" fill="#E7F6FF"/>
<path d="m24.066 235.5c-2.995-0.066-5.8433-1.31-7.9266-3.462-2.0832-2.153-3.2333-5.041-3.2006-8.036 0.0327-2.996 1.2456-5.858 3.3754-7.964 2.1298-2.107 5.0046-3.288 8.0003-3.288s5.8705 1.181 8.0003 3.288c2.1298 2.106 3.3427 4.968 3.3754 7.964 0.0328 2.995-1.1173 5.883-3.2006 8.036-2.0833 2.152-4.9316 3.396-7.9265 3.462h-0.4971zm0-17.516h-0.2573c-1.6175 0.035-3.156 0.706-4.2813 1.869-1.1254 1.162-1.7468 2.722-1.7292 4.34 0.0175 1.617 0.6724 3.163 1.8227 4.301 1.1502 1.138 2.7029 1.776 4.3208 1.776s3.1706-0.638 4.3208-1.776 1.8052-2.684 1.8227-4.301c0.0175-1.618-0.6038-3.178-1.7291-4.34-1.1254-1.163-2.6638-1.834-4.2814-1.869h-0.0087z" fill="#E7F6FF"/>
<path d="m15.955 254.59c2.726-0.117 4.8405-2.423 4.7229-5.148-0.1176-2.727-2.4228-4.841-5.1488-4.724-2.7259 0.118-4.8404 2.423-4.7229 5.149 0.1176 2.726 2.4228 4.841 5.1488 4.723z" fill="#E7F6FF"/>
<path d="m309.19 51.567c-2.715 0.0022-5.341-0.9672-7.403-2.7331-2.061-1.766-3.423-4.2118-3.837-6.8948-0.415-2.6828 0.145-5.4255 1.577-7.7315s3.643-4.0231 6.232-4.8403c2.589-0.8173 5.385-0.6807 7.881 0.385 2.497 1.0656 4.53 2.9899 5.731 5.4245 1.201 2.4347 1.49 5.2188 0.816 7.8485-0.674 2.6298-2.267 4.9312-4.491 6.4879-1.907 1.3343-4.178 2.0512-6.506 2.0538zm-0.035-17.512c-1.588-0.0016-3.116 0.6098-4.265 1.7069-1.149 1.097-1.829 2.5951-1.901 4.1819-0.071 1.5868 0.473 3.1399 1.518 4.3358 1.046 1.1956 2.513 1.9417 4.094 2.0826 1.583 0.1408 3.158-0.3345 4.399-1.3265 1.24-0.992 2.05-2.4245 2.26-3.999 0.21-1.5744-0.195-3.1692-1.132-4.452s-2.332-2.1546-3.896-2.4337c-0.356-0.0634-0.716-0.0955-1.077-0.096z" fill="#E7F6FF"/>
<path d="m286 50.945c2.234-1.5667 2.775-4.6473 1.209-6.8816-1.567-2.2338-4.648-2.7749-6.882-1.2083-2.234 1.5667-2.775 4.6473-1.208 6.8816 1.566 2.2339 4.647 2.775 6.881 1.2083z" fill="#E7F6FF"/>
<path d="m560.75 110.17c0-4.795-1.905-9.393-5.293-12.783-3.393-3.3902-7.988-5.2949-12.785-5.2949-0.401 0-0.798 0-1.19 0.0393 0.026-0.3925 0.039-0.7893 0.039-1.1904 0-2.5696-0.55-5.1092-1.609-7.4503-1.06-2.3407-2.603-4.4289-4.535-6.1251-1.932-1.6967-4.199-2.9621-6.658-3.7121-2.455-0.75-5.045-0.9676-7.592-0.6383-2.551 0.3292-4.997 1.1978-7.186 2.5482-2.185 1.35-4.06 3.1509-5.494 5.2823-1.435 2.1309-2.398 4.5435-2.83 7.077-0.427 2.5334-0.314 5.1292 0.34 7.6142-2.185-1.5846-4.696-2.6599-7.352-3.1469-2.655-0.4867-5.385-0.3733-7.988 0.3327-2.608 0.7059-5.019 1.9861-7.068 3.7469-2.045 1.7603-3.672 3.9568-4.758 6.4278-1.085 2.471-1.604 5.154-1.517 7.851 0.087 2.698 0.776 5.342 2.015 7.738 1.242 2.397 3.004 4.485 5.158 6.112 2.154 1.626 4.644 2.75 7.291 3.289 1.081 2.864 2.869 5.406 5.202 7.39 2.328 1.983 5.123 3.343 8.123 3.95s6.105 0.443 9.026-0.477c2.917-0.921 5.555-2.567 7.666-4.785 2.158 1.629 4.653 2.753 7.304 3.29 2.651 0.536 5.385 0.471 8.006-0.19 2.625-0.661 5.062-1.901 7.142-3.63s3.741-3.902 4.871-6.359c3.431-1.301 6.383-3.615 8.468-6.634 2.088-3.02 3.204-6.603 3.204-10.272z" fill="#fff"/>
<path d="m83.481 66.715c0.0026-2.3752-0.4635-4.7277-1.3705-6.9227-0.9074-2.1951-2.2382-4.19-3.9166-5.8705-1.6787-1.6805-3.6719-3.0139-5.8661-3.924-2.1937-0.9095-4.5458-1.3783-6.9209-1.3787-0.4012 0-0.798 0-1.1904 0.0392 0.0262-0.3924 0.0392-0.7892 0.0392-1.1904-4e-4 -2.5696-0.5485-5.1094-1.6081-7.4503-1.0591-2.3409-2.6054-4.4291-4.5353-6.1254s-4.1996-2.9616-6.6571-3.7118c-2.4576-0.7501-5.0464-0.9678-7.5946-0.6385-2.5485 0.3294-4.9973 1.1981-7.1833 2.5483-2.1861 1.3503-4.0593 3.151-5.4946 5.2821-1.4353 2.1312-2.3999 4.5438-2.8294 7.0773-0.4295 2.533-0.314 5.1288 0.3387 7.6142-2.185-1.5846-4.697-2.6598-7.3517-3.1469s-5.3848-0.3733-7.9899 0.3327c-2.6051 0.7059-5.019 1.9862-7.0648 3.7465-2.0457 1.7607-3.6712 3.9571-4.7573 6.4282-1.0861 2.4706-1.6051 5.1536-1.519 7.851 0.086087 2.6978 0.77511 5.342 2.0165 7.7385 1.2414 2.3965 3.0036 4.4847 5.1574 6.1116 2.1538 1.6264 4.6446 2.7501 7.2894 3.2886 1.0808 2.8614 2.87 5.4018 5.2 7.3832 2.33 1.9813 5.1247 3.3396 8.1225 3.9466 2.9978 0.6074 6.1006 0.4443 9.0182-0.4744 2.9175-0.9183 5.5543-2.5618 7.6634-4.7769 2.158 1.6286 4.6539 2.7528 7.3038 3.2895 2.6498 0.5364 5.3865 0.4718 8.008-0.1892 2.6215-0.6611 5.0616-1.9016 7.1402-3.6305s3.743-3.9022 4.8706-6.3593c3.43-1.2986 6.3842-3.6092 8.4706-6.6253 2.0865-3.0161 3.2063-6.5956 3.2111-10.263z" fill="#fff"/>
<path d="m416.07 323.95h-260.1v-5.669h260.1c0.752 0 1.472 0.299 2.004 0.83 0.531 0.532 0.83 1.253 0.83 2.005s-0.299 1.472-0.83 2.004c-0.532 0.531-1.252 0.83-2.004 0.83z" fill="#426572"/>
<path d="m144.33 323.95h-15.903c-0.752 0-1.473-0.299-2.004-0.83-0.532-0.532-0.83-1.252-0.83-2.004s0.298-1.473 0.83-2.005c0.531-0.531 1.252-0.83 2.004-0.83h15.903c0.751 0 1.472 0.299 2.004 0.83 0.531 0.532 0.83 1.253 0.83 2.005s-0.299 1.472-0.83 2.004c-0.532 0.531-1.253 0.83-2.004 0.83z" fill="#426572"/>
<path d="m118.11 323.95h-5.067c-0.751 0-1.472-0.299-2.004-0.83-0.531-0.532-0.83-1.252-0.83-2.004s0.299-1.473 0.83-2.005c0.532-0.531 1.253-0.83 2.004-0.83h5.067c0.752 0 1.473 0.299 2.004 0.83 0.532 0.532 0.83 1.253 0.83 2.005s-0.298 1.472-0.83 2.004c-0.531 0.531-1.252 0.83-2.004 0.83z" fill="#426572"/>
<path d="m507.27 323.95h-79.945v-5.669h79.945c0.75 0 1.474 0.299 2.006 0.83 0.532 0.532 0.828 1.253 0.828 2.005s-0.296 1.472-0.828 2.004c-0.532 0.531-1.256 0.83-2.006 0.83z" fill="#426572"/>
<path d="m98.545 323.95h-79.949v-5.669h79.949c0.7518 0 1.4726 0.299 2.0046 0.83 0.531 0.532 0.83 1.253 0.83 2.005s-0.299 1.472-0.83 2.004c-0.532 0.531-1.2528 0.83-2.0046 0.83z" fill="#426572"/>
<path d="m123.88 102.72h291.2c5.255 0 10.296 2.087 14.013 5.802 3.717 3.716 5.807 8.756 5.809 14.012v188.48h-330.84v-188.48c2e-3 -5.256 2.092-10.296 5.809-14.012 3.717-3.715 8.758-5.802 14.014-5.802z" fill="#EBF0F9"/>
<path d="m423.4 117.17h-306.54v175.12h306.54v-175.12z" fill="#637F91"/>
<path d="m114.57 291.96h310.14c0 1.391-0.55 2.724-1.531 3.709-0.981 0.986-2.311 1.543-3.702 1.55h-299.65c-1.394 0-2.732-0.554-3.719-1.54-0.985-0.986-1.54-2.324-1.54-3.719h5e-3z" fill="#fff"/>
<g fill="#A7BCD5" opacity=".5">
<path d="m208.47 116.52-45.832 176.76h-23.08l45.832-176.76h23.08z" opacity=".5"/>
<path d="m267.3 116.52-45.829 176.76h-48.401l45.833-176.76h48.397z" opacity=".5"/>
</g>
<path d="m437.52 313.63h-336.08v-199.55c4e-3 -3.706 1.479-7.259 4.099-9.88 2.621-2.621 6.174-4.095 9.88-4.099h308.12c3.706 4e-3 7.259 1.478 9.88 4.099 2.62 2.621 4.095 6.174 4.099 9.88v199.55zm-330.84-5.233h325.61v-194.32c-3e-3 -2.319-0.925-4.542-2.565-6.182-1.639-1.64-3.863-2.563-6.182-2.565h-308.12c-2.319 2e-3 -4.542 0.925-6.182 2.565s-2.562 3.863-2.565 6.182v194.32z" fill="#426572"/>
<path d="m62.332 304.77h423.17v1.391c0 4.51-1.792 8.835-4.979 12.025-3.192 3.189-7.518 4.981-12.026 4.981h-389.16c-4.51 0-8.8356-1.792-12.025-4.981-3.1893-3.19-4.981-7.515-4.981-12.025v-1.391z" fill="#EBF0F9"/>
<path d="m483.34 313.64c-0.929 2.419-2.573 4.499-4.71 5.966-2.136 1.466-4.67 2.25-7.26 2.249h-397.53c-2.5905 0-5.12-0.785-7.2553-2.252-2.1349-1.466-3.7758-3.545-4.7054-5.963h421.46z" fill="#A7BCD5" opacity=".5"/>
<path d="m466.52 325.13h-389.15c-5.2024-5e-3 -10.19-2.075-13.868-5.753-3.6789-3.679-5.7479-8.666-5.7536-13.869v-4.007h428.4v4.007c-4e-3 5.203-2.076 10.192-5.756 13.87-3.68 3.679-8.668 5.748-13.87 5.752zm-403.49-18.396c0.307 3.591 1.95 6.936 4.6051 9.374 2.6546 2.437 6.1277 3.79 9.7321 3.79h389.16c3.606 0 7.077-1.353 9.732-3.79 2.656-2.438 4.3-5.783 4.605-9.374h-417.83z" fill="#426572"/>
<path d="m425.36 293.92h-311.77v-179.36h311.77v179.36zm-306.54-5.232h301.31v-168.9h-301.31v168.9z" fill="#426572"/>
<path d="m376.55 60.955v230.35h-208.96v-230.35c8e-3 -1.0387 0.424-2.032 1.158-2.7663s1.728-1.1503 2.766-1.1581h201.09c0.237 0 0.474 0.0218 0.707 0.0654 0.903 0.167 1.72 0.6436 2.311 1.3478 0.59 0.7042 0.917 1.592 0.924 2.5112z" fill="#fff"/>
<path d="m170.88 76.068h206.33v-13.858l-3.946-5.1977h-198.44l-6.571 5.1977v13.858h2.629z" fill="#E2F2FF"/>
<path d="m379.82 293.92h-214.19v-232.96c6e-3 -1.7329 0.698-3.3924 1.923-4.6177 1.225-1.2249 2.885-1.9165 4.617-1.923h201.08c1.732 0.0065 3.392 0.6981 4.617 1.923 1.225 1.2253 1.917 2.8848 1.923 4.6177l0.027 232.96zm-208.96-5.233h203.72v-227.73c-9e-3 -0.3445-0.149-0.672-0.393-0.9153-0.244-0.2437-0.571-0.3841-0.915-0.3929h-201.09c-0.345 0.0088-0.672 0.1492-0.915 0.3929-0.244 0.2433-0.384 0.5708-0.393 0.9153l-0.018 227.73z" fill="#426572"/>
<path d="m364.35 65.089h-183.81c-1.452 0-2.629 1.1769-2.629 2.6294 0 1.452 1.177 2.6293 2.629 2.6293h183.81c1.452 0 2.629-1.1773 2.629-2.6293 0-1.4525-1.177-2.6294-2.629-2.6294z" fill="#CADCE8"/>
<path d="m236.38 100.74h-42.963v48.955h42.963v-48.955z" fill="#E8837E"/>
<path d="m342.31 100.74h-101.87v48.955h101.87v-48.955z" fill="#E8837E"/>
<path d="m342.31 155.12h-48.1v48.955h48.1v-48.955z" fill="#DDE4ED"/>
<path d="m290.16 155.12h-96.196v48.955h96.196v-48.955z" fill="#DDE4ED"/>
<path d="m342.58 209.49h-148.62v48.954h148.62v-48.954z" fill="#DDE4ED"/>
<path d="m343.9 265.03h-38.11v5.233h38.11v-5.233z" fill="#DDE4ED"/>
<path d="m135.71 278.82h-62.381c-1.0268 7e-3 -2.0393-0.245-2.9433-0.733-1.3081-0.715-2.1453-1.888-2.1453-3.209l0.0349-85.753c8e-4 -0.561 0.1513-1.112 0.436-1.596 0.7936-1.378 2.5858-2.346 4.6526-2.346h62.381c2.18 0 4.016 1.056 4.748 2.53 0.222 0.436 0.339 0.918 0.341 1.408l-0.031 85.757c0 1.98-1.914 3.632-4.387 3.903-0.234 0.026-0.47 0.039-0.706 0.039z" fill="#fff"/>
<path d="m137.4 278.17-62.402-0.013c-1.0269 7e-3 -2.0394-0.244-2.9433-0.732-1.3082-0.715-2.1454-1.888-2.1454-3.21l0.0349-85.752c9e-4 -0.562 0.1513-1.113 0.436-1.596 0.7936-1.378 2.5858-2.346 4.6526-2.346h0.8503l-0.0131 84.436c0 1.308 0.846 2.494 2.1454 3.209 0.9039 0.488 1.9164 0.74 2.9433 0.733h61.534v1.308c0 1.979-1.914 3.632-4.386 3.902-0.235 0.034-0.47 0.054-0.707 0.061z" fill="#D6DEE9"/>
<path d="m136.55 280.78h-62.385c-1.4712 7e-3 -2.9202-0.358-4.2122-1.06-2.1803-1.208-3.4884-3.266-3.4884-5.499l0.0349-85.752c0.0052-1.023 0.2804-2.027 0.798-2.909 1.3081-2.245 3.9244-3.645 6.9113-3.645h62.38c3.052 0 5.778 1.504 7.016 3.842l0.349 0.536v0.244c0.225 0.622 0.34 1.279 0.34 1.94l-0.035 85.753c0 3.288-2.891 6.105-6.719 6.502-0.329 0.034-0.66 0.05-0.99 0.048zm-62.355-93.654c-1.173 0-2.0887 0.519-2.3808 1.033-0.0571 0.087-0.089 0.188-0.0916 0.292l-0.0349 85.753c0 0.288 0.3183 0.654 0.7936 0.92 0.5181 0.274 1.0967 0.415 1.6832 0.41h62.381c0.136 0 0.273-7e-3 0.409-0.022 1.309-0.139 2.067-0.872 2.067-1.308l0.035-85.753c0-0.052-9e-3 -0.103-0.026-0.152l-0.244-0.375c-0.603-0.545-1.395-0.831-2.207-0.798h-62.385z" fill="#426572"/>
<path d="m129.36 222.3h-42.305v5.232h42.305v-5.232z" fill="#426572"/>
<path d="m129.36 211.38h-42.305v5.233h42.305v-5.233z" fill="#426572"/>
<path d="m129.36 234.67h-42.305v5.232h42.305v-5.232z" fill="#426572"/>
<path d="m467.44 123.84c3.048-5.721 4.918-11.994 5.503-18.449 0.584-6.4556-0.131-12.962-2.102-19.137-1.971-6.1744-5.158-11.891-9.379-16.814-4.217-4.9221-9.375-8.9498-15.175-11.846-5.799-2.8958-12.119-4.6007-18.587-5.0141-6.469-0.4133-12.955 0.4731-19.075 2.6067-6.12 2.134-11.751 5.4724-16.56 9.8176-4.81 4.3456-8.7 9.61-11.441 15.484-3.787 7.1097-5.744 15.05-5.696 23.104 0.047 8.055 2.098 15.972 5.968 23.036 3.87 7.065 9.437 13.055 16.199 17.432 6.762 4.376 14.507 7.002 22.537 7.639-1.401 0.331-2.824 0.6-4.269 0.806 7.601 1.096 15.354 0.373 22.622-2.111 7.269-2.483 13.84-6.655 19.182-12.174 4.273-4.126 7.757-9 10.273-14.38z" fill="#606060" opacity=".2"/>
<path d="m418.06 140.36c26.803 0 48.532-21.728 48.532-48.532 0-26.803-21.729-48.532-48.532-48.532s-48.532 21.729-48.532 48.532c0 26.804 21.729 48.532 48.532 48.532z" fill="#A8EF9E"/>
<path d="m464.28 95.298c0 6.9583-1.5 13.835-4.391 20.163-2.891 6.329-7.111 11.962-12.37 16.517s-11.438 7.926-18.116 9.885c-6.677 1.958-13.697 2.458-20.584 1.465 11.549-1.669 22.109-7.444 29.748-16.265 7.635-8.821 11.838-20.099 11.838-31.768s-4.203-22.946-11.838-31.768c-7.639-8.8216-18.199-14.596-29.748-16.265 6.888-0.9938 13.909-0.4945 20.586 1.4638 6.676 1.9582 12.855 5.3297 18.118 9.8855 5.259 4.5559 9.48 10.19 12.371 16.519s4.391 13.207 4.391 20.166h-5e-3z" fill="#A7E59C"/>
<path d="m416.91 145.29c-10.117 0-20.006-3-28.417-8.62s-14.967-13.609-18.838-22.954c-3.872-9.347-4.885-19.631-2.911-29.553 1.974-9.9217 6.845-19.036 13.998-26.189 7.154-7.1529 16.267-12.024 26.189-13.998s20.206-0.9607 29.553 2.9106c9.345 3.8712 17.333 10.427 22.954 18.838 5.62 8.4109 8.62 18.3 8.62 28.416-0.017 13.56-5.411 26.562-15 36.151-9.588 9.588-22.588 14.982-36.148 14.997zm0-97.059c-9.082 0-17.959 2.693-25.51 7.738-7.55 5.0455-13.436 12.216-16.911 20.606-3.475 8.39-4.384 17.622-2.613 26.529 1.772 8.907 6.145 17.088 12.566 23.509 6.422 6.422 14.603 10.795 23.51 12.567 8.907 1.771 18.139 0.862 26.529-2.614 8.391-3.475 15.56-9.36 20.605-16.911 5.045-7.55 7.74-16.428 7.74-25.509-0.013-12.174-4.853-23.845-13.465-32.453-8.608-8.6085-20.278-13.45-32.451-13.462z" fill="#426572"/>
<path d="m441.42 74.293c-1.047-0.5851-2.281-0.7421-3.441-0.4382-1.16 0.3044-2.156 1.0456-2.782 2.069l-8.402 13.736-13.426 21.924-0.375 0.615-15.501-12.401-2.826-2.2587c-1.853-1.4825-4.648-1.9491-6.432 0-1.517 1.6526-1.984 4.8441 0 6.4321l19.932 15.941 2.825 2.259c1.173 0.942 2.29 1.457 3.82 1.252 0.684-0.085 1.34-0.325 1.916-0.703s1.058-0.884 1.407-1.478l8.403-13.735 13.43-21.92 3.1-5.0668c1.225-2.032 0.493-5.0843-1.648-6.2268z" fill="#fff"/>
</g>
<defs>
<linearGradient id="a" x1=".57587" x2="547.06" y1="161.86" y2="161.86" gradientUnits="userSpaceOnUse">
<stop stop-color="#C5E9FA" offset="0"/>
<stop stop-color="#C4F4EA" offset="1"/>
</linearGradient>
<clipPath id="b">
<rect width="561.19" height="325.29" fill="#fff"/>
</clipPath>
</defs>
</svg>
