<svg width="66" height="66" viewBox="0 0 66 66" fill="none" xmlns="http://www.w3.org/2000/svg">
<path d="M44 44C50.0751 44 55 39.0751 55 33C55 26.9249 50.0751 22 44 22C37.9249 22 33 26.9249 33 33C33 39.0751 37.9249 44 44 44Z" fill="#19BCFE"/>
<path fill-rule="evenodd" clip-rule="evenodd" d="M22 66C24.9174 66 27.7153 64.8411 29.7782 62.7782C31.8411 60.7153 33 57.9174 33 55V44H22C19.0826 44 16.2847 45.1589 14.2218 47.2218C12.1589 49.2847 11 52.0826 11 55C11 57.9174 12.1589 60.7153 14.2218 62.7782C16.2847 64.8411 19.0826 66 22 66Z" fill="#09CF83"/>
<path fill-rule="evenodd" clip-rule="evenodd" d="M22 44H33V22H22C19.0826 22 16.2847 23.1589 14.2218 25.2218C12.1589 27.2847 11 30.0826 11 33C11 35.9174 12.1589 38.7153 14.2218 40.7782C16.2847 42.8411 19.0826 44 22 44Z" fill="#A259FF"/>
<path fill-rule="evenodd" clip-rule="evenodd" d="M22 22H33V0H22C19.0826 0 16.2847 1.15893 14.2218 3.22183C12.1589 5.28473 11 8.08262 11 11C11 13.9174 12.1589 16.7153 14.2218 18.7782C16.2847 20.8411 19.0826 22 22 22Z" fill="#F24E1E"/>
<path fill-rule="evenodd" clip-rule="evenodd" d="M44 22H33V0H44C46.9174 0 49.7153 1.15893 51.7782 3.22183C53.8411 5.28473 55 8.08262 55 11C55 13.9174 53.8411 16.7153 51.7782 18.7782C49.7153 20.8411 46.9174 22 44 22Z" fill="#FF7262"/>
</svg>
