<svg width="73" height="73" viewBox="0 0 73 73" fill="none" xmlns="http://www.w3.org/2000/svg">
<path d="M13.464 62.0523L8.34033 4.5625H64.6598L59.5293 62.0432L36.4659 68.4375L13.464 62.0523Z" fill="#1572B6"/>
<path d="M36.5 63.5511L55.1378 58.384L59.5224 9.26416H36.5V63.5511Z" fill="#33A9DC"/>
<path d="M36.5 30.0921H45.8303L46.4736 22.8719H36.5V15.8206H54.1797L54.0109 17.7117L52.2794 37.1434H36.5V30.0921Z" fill="white"/>
<path d="M36.5432 48.4032L36.5113 48.4123L28.6592 46.2908L28.1573 40.6675H21.0786L22.0664 51.7384L36.509 55.7488L36.5432 55.7397V48.4032Z" fill="#EBEBEB"/>
<path d="M45.2302 36.8442L44.3815 46.2863L36.5181 48.4079V55.7444L50.9721 51.7385L51.0793 50.5477L52.3043 36.8442H45.2302Z" fill="white"/>
<path d="M36.525 15.8206V22.8719H19.4932L19.3518 21.2864L19.0301 17.7117L18.8613 15.8206H36.525Z" fill="#EBEBEB"/>
<path d="M36.4998 30.0918V37.1431H28.7458L28.6044 35.5577L28.285 31.983L28.1162 30.0918H36.4998Z" fill="#EBEBEB"/>
</svg>
