<svg width="66" height="79" viewBox="0 0 66 79" fill="none" xmlns="http://www.w3.org/2000/svg">
<g clip-path="url(#clip0_57_2)">
<path d="M61.4525 10.437C54.1277 -0.0466377 39.6613 -3.15385 29.2017 3.51003L10.8318 15.2184C8.35019 16.7796 6.22164 18.8414 4.5822 21.2721C2.94277 23.7027 1.82851 26.4486 1.31065 29.3344C0.434314 34.1953 1.20448 39.2097 3.49922 43.5836C1.92678 45.9689 0.854304 48.6482 0.34662 51.4597C-0.176668 54.4036 -0.106852 57.4223 0.551972 60.3389C1.2108 63.2554 2.44537 66.011 4.18327 68.4441C11.5094 78.9288 25.9758 82.0347 36.4341 75.3708L54.804 63.6629C57.2858 62.1019 59.4145 60.0401 61.054 57.6094C62.6934 55.1787 63.8076 52.4326 64.3251 49.5468C65.2013 44.6859 64.4317 39.6716 62.1381 35.2973C63.7101 32.912 64.782 30.2327 65.2892 27.4214C65.8128 24.4776 65.7432 21.4588 65.0844 18.5422C64.4257 15.6256 63.1909 12.8699 61.4528 10.437" fill="#FF3E00"/>
<path d="M27.4054 69.4415C21.4822 70.9817 15.2275 68.6631 11.7391 63.6348C10.6934 62.1712 9.95062 60.5135 9.55424 58.759C9.15786 57.0045 9.11588 55.1885 9.43076 53.4175C9.53741 52.8361 9.68416 52.2627 9.86996 51.7015L10.2161 50.6465L11.1573 51.3379C13.3315 52.9354 15.7625 54.15 18.3455 54.9292L19.0283 55.1364L18.9655 55.8181C18.882 56.7878 19.1445 57.7557 19.7064 58.5503C20.219 59.2898 20.9461 59.8542 21.7896 60.1672C22.6331 60.4803 23.5524 60.527 24.4233 60.3009C24.8227 60.1942 25.2034 60.0268 25.5522 59.8048L43.9278 48.0948C44.3774 47.8117 44.7632 47.4381 45.0604 46.9976C45.3577 46.5572 45.56 46.0597 45.6543 45.5368C45.7486 45.003 45.7357 44.4558 45.6163 43.9271C45.4969 43.3984 45.2733 42.8987 44.9588 42.4573C44.4459 41.7176 43.7185 41.1531 42.8747 40.8398C42.0309 40.5266 41.1114 40.4798 40.2401 40.7056C39.8413 40.8124 39.4612 40.9795 39.113 41.2012L32.1007 45.6712C30.9477 46.4043 29.6894 46.9569 28.3694 47.3098C22.4465 48.8499 16.1916 46.5314 12.7036 41.5027C11.6579 40.0392 10.915 38.3816 10.5186 36.6272C10.1222 34.8727 10.0802 33.0567 10.3951 31.2858C10.7065 29.55 11.3768 27.8983 12.3631 26.4363C13.3494 24.9744 14.6299 23.7344 16.1229 22.7956L34.4969 11.0844C35.6505 10.3501 36.9097 9.79691 38.2308 9.444C44.1537 7.90385 50.4086 10.2224 53.8966 15.2508C54.9423 16.7143 55.6851 18.372 56.0815 20.1265C56.478 21.881 56.52 23.697 56.2051 25.468C56.098 26.0493 55.9513 26.6225 55.7659 27.1838L55.4198 28.2391L54.4788 27.5486C52.3049 25.9503 49.8737 24.7352 47.2904 23.9558L46.6074 23.7484L46.6704 23.0669C46.7532 22.0973 46.4908 21.1297 45.9295 20.3348C45.4169 19.5952 44.6898 19.0308 43.8462 18.7177C43.0026 18.4046 42.0833 18.358 41.2124 18.5841C40.813 18.6909 40.4324 18.8582 40.0837 19.0802L21.7081 30.7907C21.2585 31.0736 20.8728 31.4471 20.5756 31.8875C20.2785 32.3279 20.0765 32.8254 19.9826 33.3482C19.8878 33.8819 19.9004 34.4292 20.0196 34.9581C20.1389 35.4869 20.3624 35.9866 20.6771 36.428C21.19 37.1676 21.9174 37.7322 22.7612 38.0454C23.605 38.3587 24.5245 38.4055 25.3958 38.1797C25.7951 38.0727 26.1756 37.9054 26.5244 37.6835L33.5355 33.2154C34.688 32.4812 35.9463 31.9281 37.2665 31.5752C43.1894 30.0354 49.4443 32.3539 52.9325 37.3825C53.9782 38.846 54.721 40.5036 55.1173 42.258C55.5137 44.0124 55.5557 45.8284 55.2408 47.5992C54.9292 49.3352 54.2589 50.987 53.2726 52.4492C52.2863 53.9114 51.0059 55.1517 49.513 56.0909L31.139 67.8011C29.9854 68.5354 28.7262 69.0886 27.4051 69.4415" fill="white"/>
</g>
<defs>
<clipPath id="clip0_57_2">
<rect width="65.6364" height="78.9688" fill="white"/>
</clipPath>
</defs>
</svg>
