<svg width="66" height="66" viewBox="0 0 66 66" fill="none" xmlns="http://www.w3.org/2000/svg">
<path d="M12.173 56.1021L7.53857 4.125H58.4617L53.8211 56.0938L32.9692 61.875L12.173 56.1021Z" fill="#E44F26"/>
<path d="M33 57.4573L49.8506 52.7857L53.8147 8.37598H33V57.4573Z" fill="#F1662A"/>
<path d="M33 27.6518H24.5644L23.9828 21.124H33V14.7488H17.0156L17.1683 16.4607L18.7337 34.027H33V27.6518Z" fill="#EBEBEB"/>
<path d="M32.9998 44.2074L32.9709 44.2157L25.8718 42.2996L25.418 37.2156H19.0181L19.9111 47.2228L32.9709 50.8487L32.9998 50.8404V44.2074Z" fill="#EBEBEB"/>
<path d="M32.9775 27.6519V34.027H40.8274L40.089 42.2956L32.9775 44.2137V50.8467L46.0476 47.2229L46.1425 46.1463L47.6398 29.3637L47.7966 27.6519H32.9775Z" fill="white"/>
<path d="M32.9775 14.7488V21.124H48.3762L48.504 19.6926L48.7949 16.4607L48.9475 14.7488H32.9775Z" fill="white"/>
</svg>
