<svg width="70" height="79" viewBox="0 0 70 79" fill="none" xmlns="http://www.w3.org/2000/svg">
<g clip-path="url(#clip0_32_310)">
<path d="M69.8821 23.1657C69.8816 21.845 69.5991 20.678 69.0279 19.6764C68.4668 18.6914 67.6266 17.8659 66.4995 17.2132C57.1957 11.8487 47.883 6.50049 38.5823 1.13045C36.0749 -0.317124 33.6438 -0.26435 31.1549 1.20401C27.4518 3.38795 8.91133 14.0102 3.38652 17.2102C1.11125 18.5274 0.00410156 20.5431 0.00355469 23.1632C0 33.9517 0.00355469 44.7399 0 55.5287C0.000546875 56.8204 0.270977 57.9647 0.817031 58.9513C1.3784 59.966 2.23043 60.8142 3.38352 61.4817C8.90859 64.6817 27.4515 75.3031 31.1538 77.4876C33.6437 78.9568 36.0749 79.0093 38.5831 77.5612C47.8841 72.1909 57.1974 66.843 66.5025 61.4784C67.6555 60.8112 68.5076 59.9624 69.0689 58.9485C69.6142 57.962 69.8852 56.8176 69.8857 55.5257C69.8857 55.5257 69.8857 33.9544 69.8821 23.1657" fill="#5C8DBC"/>
<path d="M35.0496 39.2407L0.816895 58.9512C1.37826 59.9659 2.23029 60.8141 3.38338 61.4816C8.90846 64.6816 27.4513 75.303 31.1537 77.4875C33.6436 78.9567 36.0747 79.0092 38.583 77.5611C47.884 72.1908 57.1972 66.8429 66.5023 61.4783C67.6554 60.8111 68.5074 59.9624 69.0688 58.9485L35.0496 39.2407" fill="#1A4674"/>
<path d="M24.9106 45.0792C26.9026 48.5567 30.6474 50.9023 34.9431 50.9023C39.2653 50.9023 43.0313 48.5269 45.0132 45.0122L35.05 39.2407L24.9106 45.0792" fill="#1A4674"/>
<path d="M69.8822 23.1656C69.8816 21.8449 69.5992 20.6779 69.028 19.6763L35.0498 39.2407L69.069 58.9485C69.6142 57.9619 69.8852 56.8176 69.8857 55.5256C69.8857 55.5256 69.8857 33.9544 69.8822 23.1656" fill="#1B598E"/>
<path d="M68.0115 40.6495H65.3531V43.3084H62.6942V40.6495H60.0361V37.9914H62.6942V35.333H65.3531V37.9914H68.0115V40.6495Z" fill="white"/>
<path d="M58.3112 40.6495H55.6531V43.3084H52.9948V40.6495H50.3364V37.9914H52.9948V35.333H55.6531V37.9914H58.3112V40.6495Z" fill="white"/>
<path d="M45.013 45.0121C43.0311 48.5269 39.2651 50.9022 34.9429 50.9022C30.6472 50.9022 26.9024 48.5567 24.9104 45.0791C23.9098 43.3341 23.3842 41.3572 23.3863 39.3457C23.3863 32.9634 28.5606 27.7894 34.9429 27.7894C39.211 27.7894 42.936 30.1057 44.9378 33.5477L55.0389 27.7311C51.024 20.8006 43.5283 16.1379 34.9429 16.1379C22.1252 16.1379 11.7349 26.5286 11.7349 39.3457C11.7349 43.5506 12.8535 47.4938 14.8086 50.8951C18.8133 57.8623 26.3304 62.5537 34.9429 62.5537C43.5712 62.5537 51.1 57.8434 55.099 50.8558L45.013 45.0121Z" fill="white"/>
</g>
<defs>
<clipPath id="clip0_32_310">
<rect width="70" height="78.75" fill="white"/>
</clipPath>
</defs>
</svg>
