<svg width="71" height="79" viewBox="0 0 71 79" fill="none" xmlns="http://www.w3.org/2000/svg">
<g clip-path="url(#clip0_32_318)">
<path d="M70.2187 23.5002C70.2181 22.1717 69.9342 20.998 69.3604 19.9907C68.7967 18.9999 67.9521 18.1699 66.8197 17.5132C57.4711 12.1176 48.1135 6.73846 38.7682 1.33738C36.2487 -0.11836 33.8057 -0.0654192 31.3048 1.41144C27.5839 3.60808 8.95416 14.2917 3.40276 17.5102C1.1167 18.8351 0.00411458 20.8625 0.00356597 23.4977C0 34.3487 0.00356597 45.1991 0 56.0504C0.000548611 57.3495 0.272385 58.5005 0.820997 59.4929C1.38497 60.5133 2.24108 61.3664 3.39974 62.0379C8.95141 65.2563 27.5836 75.9392 31.3038 78.1363C33.8057 79.614 36.2487 79.6667 38.769 78.2104C48.1146 72.8091 57.4728 67.4302 66.8228 62.0346C67.9814 61.3634 68.8375 60.5098 69.4015 59.4902C69.9493 58.4977 70.2217 57.3467 70.2222 56.0473C70.2222 56.0473 70.2222 34.3514 70.2187 23.5002" fill="#A9B9CB"/>
<path d="M38.7048 1.40822C36.1894 -0.043949 33.7506 0.00899209 31.2538 1.48201C27.5389 3.67289 8.93962 14.3288 3.39727 17.539C1.11478 18.8604 0.00411458 20.8825 0.00356597 23.5109C0 34.3337 0.00356597 45.1561 0 55.9791C0.000548611 57.2749 0.271837 58.4229 0.819625 59.4126C1.38277 60.4305 2.23751 61.2814 3.39426 61.951C5.23613 63.0159 7.07937 64.0784 8.92398 65.1384L60.2444 13.8181C53.0636 9.6832 45.8809 5.55161 38.7048 1.40822Z" fill="#7F8B99"/>
<path d="M42.3683 34.8281L53.2963 34.9051C53.2963 30.3519 48.6874 19.2014 35.4739 19.2014C27.0552 19.2014 15.7373 24.5537 15.7373 39.9417C15.7373 55.3294 26.8321 60.3472 35.4739 60.3472C49.4681 60.3472 52.8127 50.6637 52.8127 45.1913L42.3872 44.5953C42.3872 44.5953 42.6662 50.9249 35.4182 50.9249C28.7279 50.9249 27.6114 42.7292 27.6114 39.9417C27.6114 35.7045 29.1182 28.9025 35.4182 28.9025C41.7184 28.9025 42.3683 34.8281 42.3683 34.8281" fill="white"/>
</g>
<defs>
<clipPath id="clip0_32_318">
<rect width="70.2222" height="79" fill="white"/>
</clipPath>
</defs>
</svg>
